<?xml version="1.0" encoding="UTF-8"?>
<svg id="Layer_1" xmlns="http://www.w3.org/2000/svg" xmlns:xlink="http://www.w3.org/1999/xlink" viewBox="0 0 64 64">
  <defs>
    <style>
      .cls-1 {
        font-family: Nunito-Black, Nunito;
        font-size: 12px;
        font-weight: 800;
      }

      .cls-1, .cls-2 {
        fill: #154a97;
      }

      .cls-3 {
        fill: url(#linear-gradient-2);
      }

      .cls-4 {
        fill: #199a91;
      }

      .cls-5 {
        fill: url(#linear-gradient-3);
      }

      .cls-6 {
        letter-spacing: 0em;
      }

      .cls-7 {
        fill: #252b67;
      }

      .cls-8 {
        fill: url(#linear-gradient);
      }
    </style>
    <linearGradient id="linear-gradient" x1="45.23" y1="30.99" x2="46.6" y2="24.98" gradientUnits="userSpaceOnUse">
      <stop offset="0" stop-color="#199a91"/>
      <stop offset=".33" stop-color="#1b9a91"/>
      <stop offset=".48" stop-color="#229d92"/>
      <stop offset=".59" stop-color="#2ea395"/>
      <stop offset=".68" stop-color="#40aa98"/>
      <stop offset=".76" stop-color="#58b39d"/>
      <stop offset=".83" stop-color="#75bfa2"/>
      <stop offset=".89" stop-color="#97cda9"/>
      <stop offset=".95" stop-color="#bdddb1"/>
      <stop offset="1" stop-color="#e1ecb8"/>
    </linearGradient>
    <linearGradient id="linear-gradient-2" x1="44.81" y1="31.32" x2="44.81" y2="31.32" gradientUnits="userSpaceOnUse">
      <stop offset="0" stop-color="#154a97"/>
      <stop offset="1" stop-color="#199a91"/>
    </linearGradient>
    <linearGradient id="linear-gradient-3" x1="44.11" y1="32.67" x2="49.73" y2="34.66" gradientUnits="userSpaceOnUse">
      <stop offset="0" stop-color="#199a91"/>
      <stop offset=".08" stop-color="#188e91"/>
      <stop offset=".32" stop-color="#167094"/>
      <stop offset=".56" stop-color="#155b95"/>
      <stop offset=".79" stop-color="#154e96"/>
      <stop offset="1" stop-color="#154a97"/>
    </linearGradient>
  </defs>
  <g>
    <path class="cls-8" d="M48.06,25.11c-.4.53-.81.81-1.1.97-.26.14-.62.28-1.22.63-.14.08-.21.12-.3.18-.19.13-.62.44-1.03.95-.19.24-.56.75-.8,1.5-.16.51-.2.93-.21,1.09-.01.17-.03.65.09,1.24.11.52.28.91.39,1.13.38.78.91,1.29,1.28,1.59-.34-.57-.53-1.08-.63-1.5-.04-.18-.09-.36-.1-.62-.01-.21-.03-.81.26-1.49.19-.45.43-.73.59-.92.36-.43.72-.67.79-.72.45-.3.6-.26,1.02-.55,0,0,.39-.28.68-.64.76-.95.34-2.65.3-2.84Z"/>
    <polygon class="cls-3" points="44.81 31.32 44.81 31.32 44.81 31.32 44.81 31.32"/>
    <path class="cls-4" d="M53.12,32.72c-.12.43-.4,1.24-1.12,1.98-.41.41-.83.67-1.15.84-.31-.06-.73-.19-1.19-.41-.21-.1-.42-.22-.64-.38-.24-.17-.84-.61-1.3-1.35-.09-.13-.17-.28-.24-.43-.2-.43-.2-.64-.5-1.06-.13-.18-.48-.7-1.11-.88-.19-.05-.46-.13-.74,0-.17.08-.27.21-.32.29.03-.08.09-.19.18-.31,0,0,.16-.19.41-.33.41-.22,1.06-.27,1.66-.12.43.12.77.33.93.42.5.31.63.51,1.05.86.13.11.47.36.95.62.21.11.44.22.7.31.42.15.88.3,1.41.26.11,0,.21-.02.33-.04.3-.07.53-.18.68-.26Z"/>
    <g>
      <path class="cls-2" d="M52.7,30.45c.02.36.02.95-.19,1.64-.1.33-.22.59-.32.79-.13,0-.29,0-.48-.02-.1-.01-.39-.04-.77-.17-.37-.12-.62-.25-.91-.41-.25-.14-.58-.33-.94-.59.44-.19,1.04-.53,1.59-1.12.28-.31.68-.75.86-1.43.05-.2.14-.54.08-.91-.07-.47-.35-.84-.66-1.11.16.13.33.28.51.47.46.5.71.99.84,1.27.27.61.36,1.17.39,1.59Z"/>
      <path class="cls-7" d="M51.62,28.23c.06.37-.03.71-.08.91-.18.69-.57,1.12-.86,1.43-.55.59-1.15.93-1.59,1.12.21-.15.5-.39.77-.76.32-.44.45-.84.48-.94.28-.88.07-1.64.02-1.81-.04-.12-.22-.71-.77-1.28-.46-.48-.96-.71-1.23-.81.29.02.66.07,1.09.2.14.05.34.12.57.22,0,0,.01,0,.02,0,.18.08.37.19.57.32.1.07.22.15.34.25h.01c.31.29.58.66.66,1.13Z"/>
    </g>
    <path class="cls-5" d="M48.81,34.81c.16.11.39.25.69.37-.97.33-1.78.23-2.02.2-.53-.07-.87-.22-.94-.26,0,0-.03-.02-.07-.03-.21-.11-.66-.33-1.07-.78-.43-.48-.59-.97-.65-1.18-.13-.43-.14-.77-.14-.9,0-.3.05-.49.07-.56.04-.14.09-.26.13-.34-.01.04-.05.16-.07.27-.04.24.07.45.1.51.03.05.12.2.4.38.11.06.37.21.82.28.25.04.65.07,1.14-.02.1.25.21.46.31.63.01.02.21.35.46.66.07.09.19.24.37.41.09.08.24.22.46.38Z"/>
  </g>
  <text class="cls-1" transform="translate(10.88 35.41)"><tspan x="0" y="0">Ha</tspan><tspan class="cls-6" x="16.25" y="0">f</tspan><tspan x="21.01" y="0">al</tspan></text>
</svg>