<?xml version="1.0" encoding="UTF-8"?>
<svg id="Layer_1" xmlns="http://www.w3.org/2000/svg" xmlns:xlink="http://www.w3.org/1999/xlink" viewBox="0 0 64 64">
  <defs>
    <style>
      .cls-1 {
        fill: url(#linear-gradient-2);
      }

      .cls-2 {
        fill: #199a91;
      }

      .cls-3 {
        fill: url(#linear-gradient-3);
      }

      .cls-4 {
        fill: #154a97;
      }

      .cls-5 {
        fill: #252b67;
      }

      .cls-6 {
        fill: url(#linear-gradient);
      }
    </style>
    <linearGradient id="linear-gradient" x1="20.33" y1="34.57" x2="25.63" y2="11.33" gradientUnits="userSpaceOnUse">
      <stop offset="0" stop-color="#199a91"/>
      <stop offset=".33" stop-color="#1b9a91"/>
      <stop offset=".48" stop-color="#229d92"/>
      <stop offset=".59" stop-color="#2ea395"/>
      <stop offset=".68" stop-color="#40aa98"/>
      <stop offset=".76" stop-color="#58b39d"/>
      <stop offset=".83" stop-color="#75bfa2"/>
      <stop offset=".89" stop-color="#97cda9"/>
      <stop offset=".95" stop-color="#bdddb1"/>
      <stop offset="1" stop-color="#e1ecb8"/>
    </linearGradient>
    <linearGradient id="linear-gradient-2" x1="18.69" y1="35.86" x2="18.7" y2="35.85" gradientUnits="userSpaceOnUse">
      <stop offset="0" stop-color="#154a97"/>
      <stop offset="1" stop-color="#199a91"/>
    </linearGradient>
    <linearGradient id="linear-gradient-3" x1="15.98" y1="41.08" x2="37.72" y2="48.78" gradientUnits="userSpaceOnUse">
      <stop offset="0" stop-color="#199a91"/>
      <stop offset=".08" stop-color="#188e91"/>
      <stop offset=".32" stop-color="#167094"/>
      <stop offset=".56" stop-color="#155b95"/>
      <stop offset=".79" stop-color="#154e96"/>
      <stop offset="1" stop-color="#154a97"/>
    </linearGradient>
  </defs>
  <path class="cls-6" d="M31.26,11.84c-1.56,2.06-3.11,3.14-4.27,3.75-1.01.53-2.41,1.07-4.73,2.43-.54.31-.81.47-1.14.7-.74.5-2.39,1.68-3.98,3.69-.73.92-2.17,2.9-3.1,5.8-.63,1.97-.78,3.59-.82,4.23-.05.68-.13,2.5.34,4.79.41,2,1.07,3.52,1.49,4.37,1.48,3,3.52,5,4.95,6.16-1.32-2.2-2.04-4.17-2.43-5.8-.16-.68-.33-1.4-.39-2.39-.05-.8-.12-3.12,1.02-5.77.74-1.72,1.68-2.84,2.3-3.57,1.4-1.65,2.77-2.59,3.05-2.79,1.73-1.18,2.31-1.02,3.95-2.14,0,0,1.51-1.07,2.64-2.47,2.95-3.67,1.33-10.27,1.15-10.99Z"/>
  <polygon class="cls-1" points="18.7 35.86 18.7 35.86 18.7 35.85 18.7 35.86"/>
  <path class="cls-2" d="M50.84,41.27c-.45,1.66-1.55,4.81-4.34,7.66-1.58,1.6-3.2,2.61-4.43,3.23-1.21-.25-2.84-.72-4.6-1.6-.8-.4-1.63-.87-2.46-1.46-.92-.65-3.23-2.36-5.03-5.22-.33-.52-.65-1.07-.93-1.68-.78-1.67-.8-2.49-1.93-4.1-.49-.7-1.87-2.68-4.28-3.39-.72-.21-1.79-.52-2.87,0-.65.31-1.04.8-1.26,1.12.14-.31.36-.74.72-1.18,0,0,.61-.75,1.59-1.28,1.57-.85,4.11-1.06,6.41-.44,1.65.44,2.98,1.25,3.58,1.61,1.94,1.18,2.43,1.99,4.08,3.32.51.41,1.81,1.41,3.67,2.39.81.42,1.71.83,2.72,1.19,1.62.57,3.39,1.17,5.46,1.02.41-.03.82-.08,1.26-.17,1.15-.25,2.04-.68,2.64-1.02Z"/>
  <g>
    <path class="cls-4" d="M45.05,23.9c-.27-1.8-1.33-3.22-2.49-4.26.6.48,1.26,1.07,1.91,1.78,1.79,1.93,2.76,3.84,3.23,4.91,1.05,2.36,1.41,4.54,1.52,6.16.09,1.38.07,3.68-.72,6.35-.38,1.26-.84,2.29-1.23,3.03-.48.02-1.12.02-1.87-.06-.38-.03-1.5-.16-2.98-.63-1.42-.46-2.4-.98-3.52-1.59-.98-.53-2.23-1.27-3.62-2.29,1.71-.74,4.03-2.05,6.13-4.34,1.11-1.2,2.63-2.89,3.32-5.55.2-.76.54-2.06.32-3.51Z"/>
    <path class="cls-5" d="M38.93,17.34c.08.04.16.08.25.12.61.31,1.27.68,1.96,1.13.41.27.9.62,1.42,1.05,1.16,1.04,2.22,2.46,2.49,4.26.22,1.45-.12,2.75-.32,3.51-.69,2.66-2.21,4.35-3.32,5.55-2.1,2.29-4.42,3.6-6.13,4.34.8-.57,1.93-1.51,2.97-2.93,1.25-1.69,1.76-3.24,1.88-3.62,1.08-3.41.26-6.33.06-7-.14-.46-.87-2.76-2.97-4.95-1.79-1.86-3.71-2.74-4.77-3.14,1.11.07,2.57.27,4.19.79.57.17,1.34.44,2.23.87.02.01.03.01.06.02Z"/>
    <path class="cls-4" d="M38.87,17.32s.04.01.06.02c-.03-.01-.04-.01-.06-.02Z"/>
  </g>
  <path class="cls-3" d="M34.17,49.35c.63.44,1.52.97,2.67,1.43-3.76,1.26-6.9.9-7.8.77-2.05-.28-3.36-.87-3.65-1.01-.01,0-.13-.06-.27-.12-.82-.41-2.56-1.26-4.14-3.03-1.66-1.86-2.27-3.76-2.52-4.56-.52-1.65-.55-2.96-.55-3.48.01-1.15.2-1.89.28-2.17.16-.55.35-1,.51-1.32-.04.14-.21.61-.28,1.05-.14.94.28,1.75.39,1.96.1.18.45.79,1.56,1.46.43.25,1.43.8,3.19,1.08.98.16,2.52.28,4.41-.06.4.96.83,1.77,1.21,2.42.05.09.8,1.37,1.76,2.55.29.35.75.91,1.44,1.57.33.31.92.87,1.79,1.46Z"/>
</svg>