<?xml version="1.0" encoding="UTF-8"?>
<svg id="Layer_1" xmlns="http://www.w3.org/2000/svg" xmlns:xlink="http://www.w3.org/1999/xlink" viewBox="0 0 64 64">
  <defs>
    <style>
      .cls-1 {
        fill: url(#linear-gradient-2);
      }

      .cls-2 {
        fill: #199a91;
      }

      .cls-3 {
        font-family: Nunito-Black, Nunito;
        font-size: 12px;
        font-weight: 800;
      }

      .cls-4 {
        letter-spacing: 0em;
      }

      .cls-4, .cls-5, .cls-6 {
        fill: #154a97;
      }

      .cls-7 {
        fill: url(#linear-gradient-3);
      }

      .cls-6 {
        letter-spacing: 0em;
      }

      .cls-8 {
        fill: #252b67;
      }

      .cls-9 {
        fill: url(#linear-gradient);
      }
    </style>
    <linearGradient id="linear-gradient" x1="23.69" y1="28.45" x2="27.46" y2="11.88" gradientUnits="userSpaceOnUse">
      <stop offset="0" stop-color="#199a91"/>
      <stop offset=".33" stop-color="#1b9a91"/>
      <stop offset=".48" stop-color="#229d92"/>
      <stop offset=".59" stop-color="#2ea395"/>
      <stop offset=".68" stop-color="#40aa98"/>
      <stop offset=".76" stop-color="#58b39d"/>
      <stop offset=".83" stop-color="#75bfa2"/>
      <stop offset=".89" stop-color="#97cda9"/>
      <stop offset=".95" stop-color="#bdddb1"/>
      <stop offset="1" stop-color="#e1ecb8"/>
    </linearGradient>
    <linearGradient id="linear-gradient-2" x1="22.52" y1="29.36" x2="22.52" y2="29.36" gradientUnits="userSpaceOnUse">
      <stop offset="0" stop-color="#154a97"/>
      <stop offset="1" stop-color="#199a91"/>
    </linearGradient>
    <linearGradient id="linear-gradient-3" x1="20.58" y1="33.09" x2="36.08" y2="38.57" gradientUnits="userSpaceOnUse">
      <stop offset="0" stop-color="#199a91"/>
      <stop offset=".08" stop-color="#188e91"/>
      <stop offset=".32" stop-color="#167094"/>
      <stop offset=".56" stop-color="#155b95"/>
      <stop offset=".79" stop-color="#154e96"/>
      <stop offset="1" stop-color="#154a97"/>
    </linearGradient>
  </defs>
  <g>
    <path class="cls-9" d="M31.47,12.24c-1.11,1.47-2.22,2.24-3.04,2.68-.72.38-1.72.76-3.37,1.73-.38.22-.57.33-.82.5-.53.35-1.7,1.2-2.84,2.63-.52.65-1.55,2.07-2.21,4.13-.45,1.41-.56,2.56-.59,3.02-.03.48-.09,1.78.24,3.41.29,1.43.76,2.51,1.06,3.12,1.05,2.14,2.51,3.56,3.53,4.39-.94-1.57-1.46-2.97-1.73-4.13-.11-.48-.23-1-.28-1.71-.04-.57-.08-2.22.73-4.11.53-1.23,1.19-2.02,1.64-2.55,1-1.17,1.97-1.85,2.18-1.99,1.24-.84,1.65-.73,2.81-1.52,0,0,1.08-.76,1.88-1.76,2.1-2.61.95-7.32.82-7.84Z"/>
    <polygon class="cls-1" points="22.52 29.36 22.52 29.37 22.52 29.36 22.52 29.36"/>
    <path class="cls-2" d="M45.43,33.22c-.32,1.19-1.1,3.44-3.09,5.46-1.13,1.14-2.28,1.86-3.16,2.31-.86-.19-2.02-.52-3.28-1.14-.57-.29-1.16-.63-1.75-1.05-.66-.46-2.3-1.68-3.59-3.71-.24-.38-.46-.77-.66-1.2-.56-1.19-.57-1.77-1.38-2.92-.35-.51-1.33-1.92-3.05-2.42-.51-.15-1.28-.37-2.05,0-.46.22-.74.57-.9.8.1-.22.26-.53.51-.85,0,0,.43-.53,1.13-.91,1.13-.61,2.94-.76,4.58-.32,1.18.32,2.12.9,2.55,1.15,1.38.84,1.73,1.42,2.91,2.37.36.29,1.29,1.01,2.62,1.7.58.3,1.22.6,1.93.85,1.16.41,2.42.84,3.89.73.29-.02.59-.06.91-.12.82-.19,1.45-.49,1.88-.73Z"/>
    <g>
      <path class="cls-5" d="M44.28,26.97c.06.98.05,2.62-.52,4.52-.26.91-.59,1.63-.87,2.17-.34.01-.8.01-1.33-.04-.27-.03-1.07-.12-2.12-.46-1.01-.32-1.71-.7-2.52-1.13-.69-.38-1.58-.91-2.57-1.63,1.22-.53,2.87-1.47,4.37-3.09.79-.86,1.87-2.06,2.37-3.96.14-.54.38-1.48.23-2.5-.2-1.3-.97-2.32-1.81-3.07.44.35.92.78,1.4,1.3,1.28,1.38,1.97,2.73,2.3,3.5.75,1.68,1.01,3.24,1.08,4.39Z"/>
      <path class="cls-8" d="M41.3,20.85c.16,1.03-.09,1.96-.23,2.5-.49,1.9-1.58,3.1-2.37,3.96-1.5,1.63-3.15,2.56-4.37,3.09.57-.41,1.38-1.08,2.12-2.1.89-1.2,1.25-2.3,1.34-2.57.77-2.44.19-4.52.04-4.99-.1-.34-.62-1.97-2.12-3.53-1.28-1.33-2.64-1.96-3.4-2.24.79.05,1.83.19,2.99.56.4.13.95.32,1.58.62.04.01.07.04.11.05.46.23.98.51,1.51.86.28.19.6.41.94.68l.04.04c.84.75,1.61,1.77,1.81,3.07Z"/>
    </g>
    <path class="cls-7" d="M33.55,38.99c.45.31,1.08.69,1.9,1.02-2.68.9-4.92.64-5.56.55-1.46-.2-2.39-.62-2.6-.72,0,0-.09-.04-.19-.09-.58-.29-1.82-.9-2.95-2.16-1.18-1.33-1.62-2.68-1.8-3.25-.37-1.18-.39-2.11-.39-2.48,0-.82.14-1.35.2-1.55.11-.39.25-.71.36-.94-.03.1-.15.43-.2.75-.1.67.2,1.25.28,1.4.07.13.32.56,1.11,1.04.31.18,1.02.57,2.27.77.7.11,1.8.2,3.14-.04.29.68.59,1.26.86,1.72.04.06.57.98,1.25,1.82.21.25.53.65,1.03,1.12.24.22.66.62,1.28,1.04Z"/>
  </g>
  <text class="cls-3" transform="translate(10.94 51.57)"><tspan class="cls-5" x="0" y="0">Ha</tspan><tspan class="cls-6" x="16.25" y="0">f</tspan><tspan class="cls-5" x="21.01" y="0">a</tspan><tspan class="cls-4" x="27.83" y="0">l</tspan><tspan class="cls-2" x="31.93" y="0">Q</tspan></text>
</svg>