<?xml version="1.0" encoding="UTF-8"?>
<svg id="Layer_1" xmlns="http://www.w3.org/2000/svg" xmlns:xlink="http://www.w3.org/1999/xlink" viewBox="0 0 64 64">
  <defs>
    <style>
      .cls-1 {
        fill: #fff;
      }

      .cls-2 {
        fill: url(#linear-gradient);
      }
    </style>
    <linearGradient id="linear-gradient" x1="32" y1="54.04" x2="32" y2="9.96" gradientUnits="userSpaceOnUse">
      <stop offset="0" stop-color="#199a91"/>
      <stop offset="1" stop-color="#154a97"/>
    </linearGradient>
  </defs>
  <rect class="cls-2" x="9.96" y="9.96" width="44.09" height="44.09" rx="12.99" ry="12.99"/>
  <g>
    <path class="cls-1" d="M31.41,15.83c-1.25,1.65-2.5,2.52-3.43,3.01-.81.42-1.94.86-3.8,1.95-.43.25-.65.38-.92.56-.59.4-1.91,1.35-3.2,2.96-.59.74-1.74,2.33-2.49,4.65-.51,1.58-.63,2.87-.66,3.39-.04.54-.1,2,.27,3.84.33,1.61.86,2.82,1.2,3.51,1.18,2.41,2.82,4.01,3.97,4.94-1.06-1.77-1.64-3.35-1.95-4.65-.13-.54-.26-1.12-.31-1.92-.04-.64-.09-2.5.82-4.62.59-1.38,1.34-2.28,1.84-2.87,1.12-1.32,2.22-2.08,2.45-2.23,1.39-.94,1.85-.82,3.16-1.71,0,0,1.21-.86,2.12-1.98,2.37-2.94,1.07-8.23.92-8.82Z"/>
    <polygon class="cls-1" points="21.33 35.09 21.33 35.09 21.34 35.09 21.33 35.09"/>
    <path class="cls-1" d="M47.1,39.43c-.35,1.34-1.23,3.86-3.48,6.14-1.26,1.28-2.56,2.09-3.54,2.6-.97-.21-2.28-.59-3.69-1.28-.64-.32-1.31-.71-1.98-1.18-.73-.52-2.59-1.88-4.03-4.18-.26-.42-.52-.87-.75-1.35-.63-1.34-.64-2-1.55-3.29-.39-.57-1.5-2.16-3.44-2.72-.58-.17-1.43-.42-2.29,0-.52.25-.84.64-1.01.9.1-.25.28-.59.58-.95,0,0,.49-.59,1.27-1.02,1.27-.68,3.3-.85,5.15-.36,1.32.36,2.39,1.01,2.86,1.3,1.56.95,1.96,1.6,3.28,2.66.4.33,1.45,1.13,2.94,1.91.65.34,1.37.67,2.17.95,1.31.47,2.73.95,4.38.83.33-.02.67-.06,1.02-.14.91-.2,1.64-.55,2.11-.82Z"/>
    <path class="cls-1" d="M39.32,21.25c.72.47,1.69,1.21,2.68,2.28,1.43,1.55,2.21,3.07,2.59,3.94.84,1.88,1.13,3.64,1.21,4.94.07,1.11.06,2.95-.58,5.08-.3,1.02-.67,1.84-.98,2.44-.38.02-.9.02-1.5-.05-.31-.03-1.2-.14-2.39-.51-1.14-.36-1.92-.79-2.83-1.27-.78-.42-1.79-1.03-2.9-1.84.65-.46,1.56-1.22,2.39-2.36.99-1.36,1.4-2.59,1.5-2.89.87-2.74.22-5.08.06-5.61-.11-.38-.7-2.22-2.38-3.97-1.44-1.49-2.97-2.21-3.83-2.52.9.06,2.06.22,3.37.63.81.26,2.14.75,3.6,1.72Z"/>
    <path class="cls-1" d="M33.74,45.92c.51.35,1.22.78,2.14,1.15-3.01,1.01-5.53.72-6.25.62-1.64-.22-2.69-.7-2.93-.81,0,0-.1-.05-.22-.1-.66-.33-2.05-1.01-3.32-2.43-1.33-1.49-1.82-3.01-2.02-3.66-.42-1.32-.44-2.37-.44-2.79,0-.92.16-1.52.22-1.74.13-.44.28-.8.41-1.06-.03.11-.17.49-.22.84-.11.75.22,1.4.31,1.57.08.14.36.63,1.25,1.17.34.2,1.15.64,2.56.87.79.13,2.02.22,3.54-.05.32.77.67,1.42.97,1.94.04.07.64,1.1,1.41,2.04.23.28.6.73,1.15,1.26.26.25.74.7,1.44,1.17Z"/>
  </g>
</svg>